<svg width="133" height="52" viewBox="0 0 133 52" fill="none" xmlns="http://www.w3.org/2000/svg">
<path d="M68.2214 5.03078L63.4941 10.0616V10.7532V11.4449H65.6587H67.8233V16.9434C67.8233 20.4764 67.8432 22.6211 67.878 22.9296C68.092 24.925 68.7986 26.5323 70.0128 27.7862C70.6149 28.4082 71.1772 28.8312 71.8987 29.2044C72.5655 29.5428 73.0233 29.7169 73.7199 29.8861C74.7251 30.1299 75.1281 30.1548 78.1287 30.1548H80.9103V27.2936V24.4324H79.5319C77.9794 24.4274 77.1534 24.3776 76.6807 24.2582C75.4814 23.9547 74.6504 23.059 74.3917 21.7951C74.2971 21.3472 74.2922 21.0885 74.2922 16.3811V11.4449H77.5266H80.761V8.85736V6.26981H77.4768H74.1926V3.13491V-1.71363e-07H73.5706H72.9536L68.2214 5.03078Z" fill="black"/>
<path d="M87.3288 5.03078L82.6016 10.0665V10.7532V11.4449H84.7661H86.9307V16.9335C86.9307 21.5164 86.9407 22.5216 87.0054 23.064C87.2343 25.0046 87.911 26.5273 89.1152 27.7763C89.7074 28.3983 90.2746 28.8262 91.0111 29.2044C91.6729 29.5428 92.1307 29.7169 92.8273 29.8861C93.8325 30.1299 94.2356 30.1548 97.2361 30.1548H100.018V27.2936V24.4324H98.6394C97.1316 24.4324 96.2459 24.3776 95.7731 24.2532C94.5839 23.9547 93.7579 23.054 93.4941 21.7851C93.4046 21.3472 93.3996 21.0536 93.3996 16.3811V11.4449H96.634H99.8684V8.85736V6.26981H96.5842H93.3001V3.13491V-1.71363e-07H92.6781H92.061L87.3288 5.03078Z" fill="black"/>
<path d="M129.483 0.0557633C128.572 0.234901 127.736 1.06092 127.512 1.99642C127.164 3.47431 128.179 4.95717 129.692 5.18109C131.488 5.44482 132.986 3.83258 132.607 2.03125C132.413 1.09576 131.567 0.249829 130.632 0.0557633C130.328 -0.00892528 129.801 -0.00892528 129.483 0.0557633ZM130.921 0.782266C131.334 0.976331 131.687 1.32963 131.886 1.74264C132.03 2.0412 132.04 2.10589 132.04 2.58857C132.04 3.07125 132.03 3.13593 131.881 3.44445C131.264 4.7432 129.552 4.99697 128.567 3.9321C127.816 3.12101 127.875 1.86704 128.701 1.10571C129.124 0.717577 129.478 0.593176 130.124 0.61308C130.532 0.623032 130.642 0.647912 130.921 0.782266Z" fill="black"/>
<path d="M129.129 2.56273V3.88139H129.427H129.726V3.45842V3.03546H129.925C130.119 3.03546 130.124 3.04043 130.343 3.41861C130.467 3.63258 130.577 3.82665 130.582 3.84655C130.592 3.86646 130.736 3.88139 130.905 3.87143L131.214 3.85651L130.955 3.40866L130.691 2.96579L130.9 2.76178C131.07 2.60254 131.119 2.51795 131.144 2.32388C131.194 2.00542 131.109 1.73671 130.895 1.51777C130.667 1.29384 130.467 1.24408 129.741 1.24408H129.129V2.56273ZM130.472 1.89097C130.602 2.02035 130.602 2.24924 130.467 2.36867C130.388 2.43833 130.288 2.46321 130.059 2.46321H129.751L129.736 2.12484L129.721 1.79145H130.049C130.308 1.79145 130.393 1.81135 130.472 1.89097Z" fill="black"/>
<path d="M9.40472 5.25462C6.87192 5.4039 4.6327 6.40408 2.88611 8.15565C1.29377 9.75793 0.308515 11.8031 0.0497604 14.0572C0.0199042 14.3458 0 17.2867 0 22.2777V30.0552H3.25931H6.51862L6.53355 22.5513C6.5435 15.4754 6.55345 15.0375 6.63804 14.7539C6.74254 14.4056 6.95153 13.9726 7.16053 13.6691C7.54866 13.1068 8.3498 12.5495 9.0564 12.3604C9.48434 12.246 10.2656 12.246 10.6985 12.3604C11.6738 12.6142 12.4899 13.2959 12.9178 14.2065C13.2512 14.9231 13.2363 14.5598 13.2363 22.4568C13.2363 26.3829 13.2512 29.6969 13.2661 29.8263L13.301 30.0552H16.5752H19.8544V22.626C19.8544 15.3759 19.8544 15.1818 19.9539 14.8086C20.2674 13.5895 21.1681 12.6789 22.3922 12.3604C22.8798 12.231 23.6163 12.241 24.0841 12.3853C24.6812 12.5694 25.1091 12.8182 25.5321 13.2362C25.965 13.6641 26.2337 14.107 26.4228 14.7041L26.5472 15.1022L26.5621 22.5762L26.577 30.0552H29.8364H33.0957L33.0758 22.0537C33.0658 14.7041 33.0559 14.0174 32.9762 13.5845C32.3791 10.3302 30.4982 7.76254 27.6718 6.32446C26.4079 5.68256 25.2634 5.36906 23.8153 5.27452C21.3074 5.11031 18.7895 5.91145 16.8986 7.48886L16.5105 7.80733L16.1224 7.48886C14.7042 6.33939 13.0173 5.59796 11.2658 5.35414C10.6836 5.27452 9.84759 5.22974 9.40472 5.25462Z" fill="black"/>
<path d="M49.1129 5.40829C46.2616 5.49786 43.6243 6.41345 41.4249 8.07545C40.8875 8.48348 39.9321 9.42396 39.4643 10.0012C38.0362 11.7726 37.1704 13.8278 36.837 16.2212C36.7325 16.9826 36.7225 18.8884 36.8171 19.6298C37.3744 23.9789 39.8425 27.4472 43.7139 29.3132C45.137 29.9999 46.6 30.398 48.2819 30.5572C49.083 30.6319 51.0286 30.5871 51.7402 30.4826C54.5368 30.0596 56.9651 28.8853 58.8858 27.0242C60.6274 25.3324 61.8515 23.1031 62.3292 20.7594C62.7174 18.8337 62.6726 16.5248 62.1999 14.7135C61.4584 11.8423 59.7716 9.38912 57.398 7.73708C55.0344 6.09001 52.2527 5.30877 49.1129 5.40829ZM51.0933 11.5985C52.3075 11.8324 53.3375 12.3797 54.2133 13.2605C55.1836 14.2308 55.7459 15.3753 55.9599 16.8283C56.0694 17.5697 56.0345 18.973 55.8902 19.6298C55.3279 22.2024 53.4171 24.0436 50.8794 24.4616C50.2126 24.5661 49.083 24.5661 48.4411 24.4566C47.1573 24.2376 46.1471 23.7351 45.2365 22.8692C44.2961 21.9686 43.7188 20.9236 43.4302 19.59C43.2809 18.9033 43.271 17.2314 43.4053 16.5497C43.7387 14.9125 44.5498 13.5939 45.7938 12.6683C46.6696 12.0215 47.7395 11.6134 48.874 11.494C49.4562 11.4343 50.4863 11.4791 51.0933 11.5985Z" fill="black"/>
<path d="M113.727 5.42874C110.403 5.58797 107.323 6.94145 105.144 9.18565C103.238 11.1512 102.108 13.5745 101.755 16.4457C101.675 17.0926 101.675 18.8939 101.755 19.5308C102.108 22.4219 103.243 24.8453 105.139 26.7909C107.119 28.8161 109.523 30.0154 112.558 30.4881C113.394 30.6175 115.753 30.6175 116.663 30.4831C121.933 29.7317 126.033 26.0594 127.207 21.0485C127.416 20.1728 127.491 19.5308 127.521 18.4311C127.551 17.3016 127.496 16.4805 127.337 15.5799C126.64 11.7234 124.192 8.47905 120.699 6.76729C118.554 5.71735 116.38 5.30434 113.727 5.42874ZM115.937 11.5742C118.111 11.9523 119.952 13.5496 120.639 15.6495C121.117 17.1274 121.102 19.093 120.594 20.5012C119.957 22.2677 118.539 23.656 116.793 24.2282C115.459 24.6611 113.707 24.6562 112.369 24.2033C110.936 23.7207 109.622 22.5812 108.93 21.2078C108.712 20.7699 108.448 19.9687 108.343 19.4064C108.209 18.6799 108.224 17.1672 108.373 16.4706C108.672 15.0574 109.229 14.0522 110.229 13.1117C111.468 11.9474 113.001 11.405 114.867 11.4746C115.215 11.4896 115.698 11.5343 115.937 11.5742Z" fill="black"/>
<path d="M33.6295 45.2275C33.2264 45.3569 32.9577 45.531 32.6592 45.8395C32.3506 46.1679 32.1615 46.5262 32.067 46.9691C31.9725 47.4269 31.9725 49.6064 32.067 50.0642C32.2461 50.8952 32.7636 51.5072 33.5349 51.7909C33.9728 51.9501 35.0626 51.9999 35.6149 51.8854C36.5554 51.6814 37.2272 51.0295 37.4461 50.104C37.5456 49.6661 37.5506 47.4468 37.4511 46.9691C37.3565 46.5262 37.1674 46.1679 36.8589 45.8395C36.5554 45.526 36.2867 45.3569 35.8737 45.2275C35.4457 45.0931 34.0475 45.0931 33.6295 45.2275ZM35.5801 46.2277C35.9583 46.3322 36.2817 46.6755 36.4061 47.1084C36.4658 47.3174 36.4808 47.616 36.4658 48.6261C36.4509 49.8154 36.4459 49.9 36.3364 50.1339C36.1921 50.4523 36.0628 50.5867 35.7543 50.7459C35.5154 50.8753 35.4706 50.8803 34.759 50.8803C34.0375 50.8803 34.0027 50.8753 33.7489 50.7409C33.4404 50.5767 33.2214 50.2981 33.112 49.9249C33.0473 49.7109 33.0373 49.4273 33.0523 48.4022C33.0672 47.2577 33.0771 47.1283 33.1717 46.9243C33.3707 46.4964 33.7141 46.2426 34.1868 46.1729C34.5152 46.1281 35.3363 46.158 35.5801 46.2277Z" fill="black"/>
<path d="M64.7876 45.2041C64.0063 45.4131 63.4191 46.0053 63.1753 46.8213C63.1106 47.0453 63.0957 47.3488 63.0957 48.5132C63.0957 49.2944 63.1206 50.0359 63.1504 50.1553C63.3545 51.056 64.1407 51.7626 65.0861 51.9069C65.5887 51.9815 66.4744 51.9317 66.8327 51.8073C67.6936 51.5138 68.2658 50.7823 68.3653 49.8468L68.4002 49.5134H67.8926H67.39L67.3303 49.807C67.2457 50.2399 67.0218 50.5434 66.6585 50.7325C66.3749 50.8768 66.3351 50.8818 65.738 50.8818C65.1856 50.8768 65.0811 50.8619 64.8722 50.7624C64.7428 50.6977 64.5587 50.5534 64.4641 50.4439C64.1755 50.1055 64.1407 49.9015 64.1407 48.5182C64.1407 47.1348 64.1755 46.9308 64.4591 46.5924C64.7328 46.279 65.0513 46.1645 65.6832 46.1595C66.3898 46.1546 66.6337 46.2292 66.9571 46.5477C67.2009 46.7965 67.2457 46.891 67.3502 47.3836L67.3751 47.523H67.8727H68.3703V47.3737C68.3703 46.3984 67.5791 45.4082 66.6237 45.1892C66.3202 45.1195 65.0612 45.1295 64.7876 45.2041Z" fill="black"/>
<path d="M90.8026 45.2278C90.0761 45.4617 89.5188 46.0439 89.2849 46.8002C89.2053 47.059 89.1953 47.2829 89.1953 48.5169C89.1953 49.8406 89.2003 49.96 89.3048 50.2834C89.5834 51.1692 90.2851 51.7663 91.2106 51.9056C91.763 51.9902 92.7482 51.9355 93.1463 51.7962C93.7683 51.5822 94.3107 51.0348 94.5595 50.373C94.659 50.1093 94.669 49.9749 94.6839 48.6911C94.6938 47.7705 94.6839 47.1983 94.6441 46.9993C94.4799 46.1434 93.8181 45.4218 92.9821 45.2029C92.584 45.0934 91.1658 45.1133 90.8026 45.2278ZM92.8428 46.2578C93.1363 46.3772 93.3453 46.5663 93.4896 46.84L93.624 47.0988L93.6389 48.4075C93.6588 49.8903 93.624 50.0944 93.3254 50.4427C93.2309 50.5571 93.0468 50.7014 92.9124 50.7661C92.6984 50.8706 92.6139 50.8806 91.9321 50.8806C91.1957 50.8806 91.1808 50.8806 90.917 50.7313C90.6284 50.5721 90.4095 50.3183 90.305 50.0197C90.2602 49.8854 90.2403 49.4823 90.2403 48.5667C90.2403 47.1187 90.2701 46.9495 90.5687 46.6061C90.7876 46.3573 91.0215 46.2329 91.3798 46.1732C91.7381 46.1185 92.6338 46.1683 92.8428 46.2578Z" fill="black"/>
<path d="M111.737 45.1878C111.03 45.3023 110.508 45.6655 110.254 46.2229C110.164 46.4169 110.144 46.5413 110.144 47.0489C110.144 47.5962 110.154 47.6659 110.279 47.8948C110.567 48.4422 110.886 48.6114 112.16 48.9149C113.662 49.2732 113.797 49.3279 113.961 49.6613C114.21 50.149 113.936 50.6963 113.379 50.8506C113.085 50.9302 112.075 50.9202 111.781 50.8307C111.393 50.7162 111.115 50.3729 111.115 50.0046V49.8603H110.587H110.055L110.085 50.2087C110.159 51.0695 110.721 51.6915 111.607 51.8806C112.03 51.9702 113.085 51.9702 113.513 51.8806C114.583 51.6517 115.15 50.9302 115.08 49.8802C115.036 49.1239 114.692 48.6561 113.986 48.3924C113.792 48.3227 113.214 48.1585 112.707 48.0341C111.378 47.7107 111.209 47.6012 111.174 47.0588C111.159 46.7951 111.174 46.7254 111.274 46.5762C111.473 46.2826 111.752 46.1681 112.304 46.1383C113.309 46.0885 113.832 46.3672 113.891 46.9693L113.916 47.223H114.429H114.946V46.9842C114.946 46.6458 114.822 46.2477 114.618 45.9442C114.344 45.5411 113.896 45.2824 113.304 45.1878C112.931 45.1281 112.1 45.1281 111.737 45.1878Z" fill="black"/>
<path d="M12.4395 48.5121V51.8013H12.9619H13.4844V50.7812V49.7611H14.619C15.8779 49.7611 16.0769 49.7313 16.485 49.4576C16.7786 49.2635 17.0274 48.9451 17.1766 48.5768C17.2762 48.3231 17.2911 48.2086 17.2911 47.4721V46.6511L17.1269 46.3177C16.9278 45.9047 16.5347 45.5315 16.1317 45.3723C15.858 45.2628 15.7834 45.2578 14.1462 45.2429L12.4395 45.228V48.5121ZM15.848 46.3923C16.1765 46.5715 16.271 46.8302 16.271 47.502C16.271 48.2633 16.1765 48.4723 15.7485 48.6714C15.5744 48.751 15.4151 48.7659 14.5194 48.7659H13.4844V47.5219V46.2779H14.5692C15.5943 46.2779 15.659 46.2829 15.848 46.3923Z" fill="black"/>
<path d="M22.277 45.2678C22.2571 45.2827 22.2422 46.7606 22.2422 48.552V51.8013H22.7647H23.2872V50.6817V49.5621H23.9739H24.6605L25.407 50.6817L26.1484 51.7963L26.7604 51.8013H27.3675L26.7157 50.8161C26.3524 50.2786 25.9941 49.7512 25.9095 49.6467C25.8299 49.5422 25.7702 49.4526 25.7802 49.4427C25.7901 49.4327 25.9394 49.3531 26.1135 49.2635C26.7306 48.9401 27.0092 48.4524 27.054 47.6165C27.0839 47.0741 27.0142 46.5566 26.8649 46.2679C26.6261 45.8002 26.1434 45.422 25.6309 45.3026C25.3373 45.2329 22.3417 45.1981 22.277 45.2678ZM25.6558 46.4123C25.9245 46.6013 25.9991 46.8302 25.9991 47.4224C25.9991 47.8802 25.9842 47.9698 25.8797 48.1489C25.6607 48.532 25.5413 48.5669 24.3371 48.5669H23.2872V47.4174V46.2729L24.3968 46.2879C25.4468 46.3028 25.5114 46.3078 25.6558 46.4123Z" fill="black"/>
<path d="M42.6445 48.516V51.8052L44.3264 51.7903C45.9188 51.7754 46.0183 51.7654 46.3019 51.6609C46.9339 51.427 47.4265 50.9444 47.6803 50.3174C47.7898 50.0437 47.7947 49.989 47.7947 48.516C47.7947 47.0431 47.7898 46.9884 47.6803 46.7147C47.4215 46.0728 46.9339 45.61 46.2721 45.3762C45.9685 45.2667 45.874 45.2617 44.3016 45.2418L42.6445 45.2219V48.516ZM45.8989 46.3465C46.2074 46.441 46.4413 46.6252 46.6104 46.9138L46.7498 47.1476L46.7647 48.4016C46.7746 49.1978 46.7597 49.7252 46.7249 49.8546C46.6502 50.1283 46.3915 50.4567 46.1278 50.606C45.9088 50.7254 45.874 50.7304 44.7743 50.7453L43.6397 50.7602V48.521V46.2768H44.6499C45.3814 46.2768 45.7297 46.2967 45.8989 46.3465Z" fill="black"/>
<path d="M52.8457 47.4564C52.8457 48.7402 52.8706 49.825 52.8955 50.0091C52.9701 50.457 53.2338 50.9994 53.5274 51.2929C53.816 51.5816 54.2987 51.8304 54.7117 51.905C55.1347 51.9846 56.1846 51.9349 56.528 51.8204C57.1798 51.6015 57.7123 51.0491 57.9213 50.3774C58.0158 50.0639 58.0208 49.9245 58.0208 47.6405V45.2321H57.5232H57.0256V47.4614C57.0256 49.9096 57.0057 50.1186 56.732 50.457C56.4882 50.7605 56.1996 50.87 55.5875 50.8949C54.7366 50.9297 54.2937 50.7456 54.025 50.238C53.9156 50.039 53.9156 49.9942 53.9006 47.6306L53.8857 45.2321H53.3682H52.8457V47.4564Z" fill="black"/>
<path d="M73.0329 45.2678C73.013 45.2827 72.998 45.5215 72.998 45.7902V46.2779H74.043H75.088V49.0396V51.8013H75.5856H76.0832V49.0396V46.2779H77.1282H78.1781L78.1632 45.7654L78.1483 45.2578L75.6055 45.2429C74.2072 45.2379 73.0478 45.2479 73.0329 45.2678Z" fill="black"/>
<path d="M83.0508 48.5171V51.8013H83.5484H84.046V48.5171V45.2329H83.5484H83.0508V48.5171Z" fill="black"/>
<path d="M99.8184 48.5171V51.8013H100.316H100.814V49.3481V46.8999L101.018 47.2482C101.127 47.4373 101.849 48.542 102.615 49.6964L104.013 51.8013H104.531H105.043V48.5171V45.2329H104.546H104.048L104.038 47.6811L104.023 50.1294L103.809 49.7313C103.69 49.5173 102.973 48.4176 102.217 47.298L100.838 45.2578L100.331 45.2429L99.8184 45.228V48.5171Z" fill="black"/>
</svg>
